<?xml version="1.0" standalone="no"?>
<!DOCTYPE svg PUBLIC "-//W3C//DTD SVG 20010904//EN"
 "http://www.w3.org/TR/2001/REC-SVG-20010904/DTD/svg10.dtd">
<svg version="1.0" xmlns="http://www.w3.org/2000/svg"
 width="1600.000000pt" height="1600.000000pt" viewBox="0 0 1600.000000 1600.000000"
 preserveAspectRatio="xMidYMid meet">
<metadata>
Created by potrace 1.16, written by Peter Selinger 2001-2019
</metadata>
<g transform="translate(0.000000,1600.000000) scale(0.100000,-0.100000)"
fill="#000000" stroke="none">
<path d="M7150 15298 c-478 -38 -1186 -199 -1645 -373 -38 -15 -82 -30 -96
-35 -14 -4 -34 -12 -45 -18 -10 -6 -64 -29 -119 -53 -295 -125 -529 -281 -608
-406 -31 -49 -43 -120 -28 -165 31 -94 174 -161 397 -187 116 -14 391 -14 559
-1 191 15 531 64 678 97 37 9 69 14 71 12 3 -4 38 -137 61 -229 7 -30 22 -91
34 -135 20 -80 79 -326 101 -419 9 -40 9 -51 -2 -57 -30 -17 -118 -107 -150
-154 -33 -49 -88 -163 -88 -183 0 -6 -10 -14 -22 -17 -42 -12 -261 -96 -358
-137 -153 -65 -417 -198 -527 -264 -17 -10 -57 -34 -88 -52 -153 -89 -393
-263 -595 -431 -297 -247 -669 -668 -860 -975 -53 -86 -107 -176 -123 -206
-11 -19 -28 -49 -38 -66 -18 -30 -113 -221 -146 -294 -9 -19 -19 -42 -23 -51
-5 -8 -20 -47 -35 -85 -14 -38 -32 -83 -40 -100 -32 -73 -115 -339 -144 -461
-141 -587 -164 -1105 -75 -1688 24 -156 78 -408 110 -505 52 -163 95 -292 107
-321 8 -19 34 -79 57 -134 65 -151 161 -335 275 -523 17 -29 90 -137 95 -142
3 -3 21 -27 39 -55 19 -27 37 -52 41 -55 3 -3 25 -32 49 -65 25 -33 67 -86 94
-118 28 -31 47 -60 44 -63 -4 -4 -53 3 -109 14 -57 12 -167 29 -245 38 -134
16 -143 19 -143 39 0 41 -50 189 -96 282 -69 142 -161 252 -292 350 -263 196
-608 246 -923 135 -61 -21 -63 -23 -159 -78 -243 -140 -412 -378 -470 -664
-49 -239 0 -485 143 -720 79 -128 235 -267 387 -342 151 -75 255 -98 435 -98
l150 0 40 -56 c90 -125 322 -341 559 -519 280 -209 514 -355 806 -500 98 -49
345 -158 435 -192 22 -8 60 -23 85 -33 240 -93 649 -200 770 -200 l47 0 31
-92 c69 -204 92 -267 135 -363 36 -84 42 -105 35 -130 -5 -16 -13 -91 -17
-165 -6 -103 -13 -148 -30 -190 -32 -79 -65 -189 -92 -310 -21 -94 -23 -130
-23 -345 0 -250 8 -311 61 -480 22 -71 84 -215 105 -247 10 -14 18 -29 18 -32
0 -3 19 -33 42 -67 151 -220 367 -386 598 -458 19 -6 58 -17 86 -26 143 -44
406 -58 577 -30 375 60 733 302 992 668 115 163 222 367 286 546 22 63 49 220
49 290 0 41 3 47 28 58 83 35 341 93 415 93 33 0 35 -2 73 -87 161 -365 495
-760 816 -966 234 -151 447 -224 678 -234 123 -5 145 -3 244 21 281 68 543
253 697 491 66 103 121 253 146 400 56 329 -30 768 -236 1197 -38 79 -41 92
-41 169 0 46 -4 101 -9 121 -7 32 -4 50 21 110 98 240 191 617 228 928 18 147
22 170 31 170 5 0 32 16 59 35 27 19 52 35 55 35 7 0 99 66 180 129 200 157
528 469 751 716 59 66 113 125 119 131 13 14 88 102 149 174 68 81 316 397
357 455 85 119 109 155 109 160 0 3 15 27 33 53 18 26 37 54 41 62 4 8 18 33
31 55 80 136 174 359 175 415 0 11 19 20 63 29 103 22 274 98 325 144 10 10
24 17 30 17 7 0 12 4 12 8 0 5 21 24 46 43 80 59 205 223 250 326 57 130 94
293 94 408 0 132 -42 309 -102 430 -149 301 -424 498 -758 541 -579 74 -1088
-376 -1095 -970 l-1 -118 -50 -36 c-27 -19 -86 -69 -132 -110 -93 -84 -88 -89
-52 58 18 75 50 250 70 390 18 121 40 453 40 615 0 403 -51 824 -147 1190 -22
83 -93 314 -109 350 -7 17 -29 73 -50 125 -68 175 -206 439 -331 635 -130 204
-321 444 -498 625 -172 176 -289 282 -477 429 -108 84 -379 271 -392 271 -4 0
-29 16 -56 35 -27 19 -52 35 -54 35 -2 0 -46 24 -97 53 -143 80 -315 163 -484
232 -49 21 -110 46 -135 56 -56 23 -214 78 -256 88 -17 5 -51 15 -75 24 -111
38 -389 103 -584 136 -300 50 -351 54 -720 58 -198 2 -396 0 -440 -5 l-80 -8
-70 66 c-39 36 -91 76 -115 89 -57 30 -176 71 -207 71 -17 0 -24 7 -29 28 -3
15 -14 54 -24 87 -10 33 -25 89 -35 125 -10 36 -25 92 -35 125 -10 33 -25 89
-35 125 -24 92 -50 184 -73 261 l-19 67 61 17 c186 52 454 140 594 195 28 11
73 28 100 38 194 76 475 227 569 307 167 143 212 253 140 347 -86 112 -280
159 -652 156 -110 0 -247 -5 -305 -10z m680 -87 c117 -25 197 -64 223 -109 17
-29 18 -39 8 -72 -37 -123 -302 -301 -683 -459 -240 -100 -750 -262 -762 -243
-2 4 -14 42 -26 86 l-22 79 51 44 c59 52 62 66 31 167 -28 90 -49 101 -180 93
-124 -8 -263 -53 -322 -104 -9 -9 -25 -12 -36 -9 -31 10 -222 -110 -222 -139
0 -16 27 -28 35 -15 6 10 140 100 148 100 3 0 11 -26 17 -57 21 -109 27 -120
73 -137 23 -9 55 -17 72 -18 28 -3 31 -7 51 -86 11 -46 18 -84 15 -86 -9 -6
-264 -53 -381 -71 -526 -78 -971 -70 -1158 22 -117 58 -118 129 -3 243 85 85
189 153 375 246 512 255 1333 475 1986 533 69 6 141 13 160 15 19 2 130 3 245
1 162 -3 232 -9 305 -24z m-1260 -487 c4 -5 11 -19 15 -31 6 -22 4 -23 -64
-23 -38 0 -94 -5 -123 -11 -65 -14 -175 -63 -205 -91 -26 -24 -28 -23 -37 14
-5 21 0 31 24 52 50 42 160 83 265 99 42 7 115 1 125 -9z m14 -100 c23 -9 20
-20 -14 -44 -26 -19 -33 -20 -47 -9 -44 37 -212 -4 -253 -61 -15 -21 -25 -26
-49 -22 -37 5 -38 12 -8 39 73 68 296 126 371 97z m-70 -186 c14 -46 64 -225
111 -398 48 -173 104 -377 126 -454 21 -76 39 -144 39 -151 0 -7 -21 -15 -51
-19 -28 -4 -73 -16 -100 -26 l-49 -20 -5 23 c-3 12 -61 252 -130 532 -69 281
-127 519 -128 530 -3 26 72 65 125 65 l37 0 25 -82z m414 -1093 c34 -8 84 -26
110 -39 49 -25 152 -103 152 -115 0 -4 -44 -13 -97 -20 -184 -24 -495 -94
-695 -155 l-46 -15 15 37 c46 110 149 220 253 270 107 51 201 62 308 37z
m1252 -220 c680 -72 1296 -266 1865 -584 367 -206 668 -434 971 -736 324 -323
550 -629 746 -1010 212 -413 331 -825 400 -1385 29 -239 32 -798 4 -1020 -67
-546 -199 -1009 -409 -1435 -56 -114 -166 -315 -172 -315 -2 0 17 52 41 115
78 208 172 516 233 765 193 797 226 1474 102 2070 -24 115 -84 323 -117 406
-13 33 -24 67 -24 76 0 35 -52 184 -90 257 -23 44 -68 112 -101 151 -33 39
-57 75 -54 79 3 5 23 12 45 16 38 6 70 27 70 44 0 4 -6 16 -14 26 -14 19 -16
19 -79 2 -36 -9 -68 -17 -70 -17 -3 0 -43 48 -88 108 -194 252 -542 546 -782
663 l-46 23 61 37 c34 21 74 43 89 49 15 7 30 18 33 27 8 21 -11 53 -32 53
-15 0 -130 -61 -212 -112 -15 -10 -33 -6 -104 25 -321 140 -660 207 -1151 230
-45 2 -50 4 -53 27 -2 14 -17 72 -33 129 -138 484 -484 903 -860 1044 -155 58
-300 70 -454 38 -334 -71 -587 -304 -683 -627 -25 -83 -52 -252 -52 -326 l0
-53 -46 84 c-82 154 -212 304 -338 390 -140 97 -324 152 -505 152 -271 0 -489
-97 -689 -305 -200 -209 -313 -469 -344 -796 -10 -108 -9 -145 6 -260 9 -74
25 -168 35 -208 11 -39 16 -74 13 -76 -4 -2 -45 -19 -92 -37 -279 -108 -583
-305 -813 -528 l-117 -114 -143 28 c-153 29 -174 29 -190 4 -22 -35 -2 -46
120 -68 65 -12 126 -25 135 -27 14 -4 3 -24 -61 -107 -43 -56 -107 -147 -141
-201 -60 -95 -170 -307 -184 -353 -4 -13 -33 -43 -64 -67 -145 -111 -229 -237
-284 -424 -32 -111 -32 -336 0 -469 28 -116 68 -213 124 -305 44 -70 46 -77
57 -193 85 -845 469 -1689 1054 -2315 33 -36 81 -87 106 -114 l46 -49 -45 34
c-251 191 -590 532 -787 794 -303 402 -528 855 -647 1307 -95 359 -139 699
-139 1088 0 436 55 808 181 1220 332 1081 1124 2009 2187 2561 398 207 784
343 1275 449 147 32 432 68 660 84 112 8 510 -4 650 -19z m75 -235 c311 -90
610 -379 788 -760 243 -520 187 -1007 -147 -1283 -129 -106 -318 -191 -495
-223 -99 -17 -279 -17 -361 0 -54 12 -73 22 -115 61 -68 63 -146 109 -230 136
-83 26 -110 49 -177 149 -122 181 -212 437 -270 760 -21 121 -16 395 9 506 75
324 258 536 548 636 44 15 105 32 135 37 79 14 233 5 315 -19z m-1817 -385
c166 -35 290 -103 418 -230 50 -49 109 -117 132 -151 180 -269 273 -647 259
-1054 -3 -85 -11 -183 -18 -218 -12 -61 -15 -65 -66 -99 -117 -78 -207 -195
-248 -325 -14 -44 -25 -87 -25 -97 0 -37 -190 -117 -359 -152 -184 -38 -381
-18 -545 55 -207 92 -405 287 -525 517 -168 320 -201 709 -91 1041 63 187 140
316 268 449 182 190 376 276 624 278 59 1 138 -6 176 -14z m3192 -866 c135
-14 307 -46 432 -80 183 -49 393 -127 386 -143 -1 -6 -212 -150 -468 -321
-412 -276 -1032 -698 -1253 -852 -61 -43 -77 -60 -75 -77 6 -43 41 -28 220 96
579 402 1646 1118 1665 1118 15 0 161 -82 258 -144 95 -61 241 -176 344 -272
79 -73 261 -280 261 -297 0 -6 -4 -6 -12 1 -37 29 -168 64 -258 69 -123 7
-196 -7 -299 -58 -108 -53 -234 -172 -229 -217 5 -43 39 -35 86 21 57 70 146
133 232 164 65 24 89 28 175 27 100 -2 141 -11 248 -56 26 -11 47 -23 47 -27
0 -3 -181 -55 -403 -115 -221 -60 -454 -123 -517 -141 -63 -18 -176 -49 -250
-70 -257 -71 -796 -226 -960 -276 -316 -96 -388 -127 -374 -163 9 -24 33 -27
72 -7 58 30 485 160 987 301 121 34 290 81 375 105 200 56 908 250 1027 281
50 13 98 27 107 30 20 8 96 -64 152 -142 122 -170 176 -380 153 -595 -42 -418
-271 -706 -644 -811 l-80 -23 -950 3 c-909 4 -1241 -2 -1630 -28 -167 -12
-439 -42 -558 -63 -70 -13 -79 -13 -86 2 -20 36 -169 748 -159 756 2 1 26 10
53 19 121 40 258 151 325 265 60 103 85 196 84 321 0 113 -16 184 -61 274 -22
44 -23 48 -6 42 45 -18 220 -18 327 -1 313 49 577 201 725 418 48 71 108 204
132 294 18 67 30 228 29 387 0 10 218 1 370 -15z m-2161 -714 c22 -33 41 -63
41 -67 0 -5 -21 -8 -47 -8 -27 0 -75 -7 -108 -14 -33 -8 -61 -13 -62 -12 -2 1
2 29 7 62 6 32 13 116 17 186 l6 127 52 -107 c29 -59 71 -134 94 -167z m-2104
-130 c145 -333 432 -590 755 -676 117 -31 315 -32 445 -1 116 27 228 67 306
109 4 2 12 -31 18 -73 21 -145 88 -271 195 -371 116 -107 261 -162 428 -163
l76 0 12 -72 c22 -134 89 -462 118 -578 16 -63 28 -118 26 -121 -2 -4 -21 -10
-41 -14 -62 -11 -229 -61 -430 -129 -208 -70 -516 -185 -953 -356 -699 -274
-1165 -432 -1454 -495 -444 -96 -929 66 -1178 394 -201 265 -244 689 -97 951
22 38 22 38 38 18 l17 -20 610 21 c1078 38 1174 41 1459 51 154 5 303 10 332
10 41 0 55 4 62 19 7 13 7 23 -2 34 -11 14 -39 15 -262 7 -137 -5 -464 -16
-725 -25 -261 -9 -702 -25 -980 -34 -278 -10 -507 -17 -509 -15 -2 2 34 41 80
87 128 126 269 187 429 187 92 0 159 -19 224 -61 37 -25 52 -30 65 -22 28 18
18 45 -32 79 -115 79 -298 94 -461 37 -22 -7 -41 -12 -42 -10 -5 5 75 162 129
252 53 88 149 225 218 311 43 54 45 54 88 49 61 -7 436 -102 709 -179 454
-129 848 -258 1016 -335 38 -17 77 -31 86 -31 25 0 33 30 14 51 -63 69 -944
351 -1574 504 -107 25 -203 50 -213 54 -16 6 -2 23 83 105 161 154 381 309
590 417 81 41 265 118 278 116 7 -1 28 -38 47 -82z m2281 -190 c66 -39 98 -93
102 -176 3 -55 0 -77 -17 -113 -35 -71 -120 -125 -201 -125 -50 -1 -131 40
-167 83 -157 191 70 456 283 331z m4229 -960 c46 -200 73 -394 84 -612 39
-750 -174 -1774 -541 -2603 -63 -144 -90 -184 -228 -344 -353 -409 -768 -729
-1280 -985 -475 -237 -953 -381 -1530 -458 -180 -24 -224 -26 -565 -27 -297 0
-400 3 -520 18 -547 65 -1026 195 -1500 406 -230 102 -354 171 -485 269 -666
497 -1165 1183 -1421 1954 -83 249 -154 569 -175 787 l-7 74 71 -65 c192 -174
522 -299 793 -299 46 0 48 -1 60 -37 44 -139 160 -390 252 -548 290 -497 730
-971 1207 -1297 721 -494 1534 -672 2339 -512 372 73 690 204 996 409 459 308
823 746 1106 1330 249 514 412 1083 489 1710 6 49 12 90 13 91 1 0 36 8 79 17
357 75 631 374 697 762 17 101 21 118 27 113 2 -3 20 -71 39 -153z m1680 -684
c420 -88 715 -452 715 -881 0 -237 -81 -443 -240 -613 -115 -124 -223 -191
-393 -249 -121 -40 -305 -50 -437 -24 -179 37 -333 119 -461 246 -146 144
-231 312 -260 512 -47 319 93 656 350 847 211 157 473 215 726 162z m-1118
-1148 c8 -32 32 -95 53 -140 161 -345 496 -563 864 -563 l96 0 -7 -32 c-31
-159 -208 -469 -452 -793 -275 -364 -709 -844 -1021 -1130 -165 -151 -491
-399 -504 -384 -2 2 1 65 6 139 11 151 4 649 -10 695 -7 24 -14 30 -36 30
l-29 0 -1 -425 c-2 -331 -6 -457 -19 -570 -51 -427 -126 -752 -236 -1019 -33
-81 -37 -98 -30 -139 11 -66 10 -255 -1 -333 -5 -37 -23 -107 -40 -157 -108
-322 -367 -559 -770 -702 -149 -54 -261 -74 -410 -74 -183 0 -302 27 -615 141
-171 63 -264 83 -373 83 -131 0 -338 -36 -463 -79 -80 -27 -110 -44 -217 -123
-358 -264 -637 -391 -956 -433 -144 -19 -220 -19 -359 0 -335 44 -694 218
-881 426 -159 177 -225 345 -233 597 -3 78 -1 142 3 142 5 0 15 -9 22 -20 15
-24 45 -26 62 -4 11 13 4 33 -47 132 -55 105 -128 277 -168 396 -70 205 -169
564 -220 791 -16 71 -34 105 -56 105 -18 0 -39 -33 -34 -53 22 -101 100 -412
124 -496 17 -58 29 -106 28 -107 -4 -5 -265 45 -342 64 -395 103 -901 315
-1250 525 -292 176 -570 378 -780 567 -110 100 -265 267 -265 286 0 5 39 21
86 36 291 94 532 347 623 653 21 73 41 208 41 283 l0 43 43 -5 c23 -4 83 -11
132 -16 93 -11 242 -38 356 -64 65 -15 67 -17 208 -156 205 -202 464 -412 682
-554 59 -39 87 -66 129 -125 77 -108 304 -331 447 -438 232 -174 536 -335 810
-429 l51 -18 -62 -67 c-118 -127 -201 -273 -247 -434 -31 -108 -33 -354 -4
-455 46 -160 132 -296 264 -423 360 -342 997 -541 1731 -540 607 0 1198 131
1718 379 453 216 819 524 983 828 135 250 153 452 69 757 -63 230 -179 416
-335 536 l-76 58 83 74 c367 330 682 753 744 1001 22 87 50 140 154 289 232
334 416 702 542 1085 38 119 40 122 111 194 78 79 258 235 264 228 3 -2 11
-30 20 -63z m-9596 -809 c261 -59 488 -238 607 -479 257 -517 -15 -1127 -573
-1286 -92 -26 -279 -36 -380 -20 -221 36 -430 157 -567 329 -64 81 -147 243
-173 337 -10 34 -19 118 -22 197 -5 118 -3 151 16 230 40 171 111 304 231 431
220 234 546 333 861 261z m7654 -2071 c167 -110 277 -264 349 -483 98 -304 86
-525 -44 -760 -290 -526 -1078 -970 -1985 -1119 -254 -42 -432 -54 -730 -48
-347 7 -558 34 -820 107 -487 136 -838 374 -980 665 -105 214 -97 493 20 725
69 136 230 326 270 317 11 -2 92 -23 180 -45 332 -84 554 -112 943 -119 160
-3 292 -7 292 -9 0 -2 -13 -24 -28 -48 -16 -25 -37 -67 -47 -93 -10 -26 -37
-69 -60 -94 -79 -89 -87 -220 -17 -271 18 -13 50 -134 38 -146 -3 -3 -205 -5
-448 -6 -441 0 -591 8 -771 40 -104 18 -116 10 -98 -61 53 -211 270 -439 551
-580 311 -156 675 -229 1135 -229 600 0 1048 118 1455 381 373 242 676 629
755 966 27 112 27 112 -163 49 -292 -96 -848 -259 -857 -251 -5 5 -5 47 -2
160 2 56 -2 71 -24 105 -14 22 -44 48 -65 59 -21 11 -43 27 -48 35 -5 8 -40
47 -78 86 l-68 71 97 26 c421 114 852 323 1148 556 28 22 52 40 55 40 3 1 23
-11 45 -26z m-1670 -508 c105 -27 233 -97 314 -172 l73 -68 -218 -1 c-349 -2
-783 -63 -949 -134 -26 -11 -49 -20 -51 -20 -3 0 7 23 23 52 36 67 191 223
265 266 65 39 172 78 249 91 70 13 218 6 294 -14z m456 -324 c43 -13 76 -47
88 -89 20 -68 24 -67 -222 -68 -239 -1 -426 -18 -652 -60 -211 -39 -465 -110
-606 -168 -27 -11 -42 46 -27 98 43 142 275 229 751 281 78 8 158 17 177 19
69 8 456 -2 491 -13z m1103 -98 c-22 -90 -104 -255 -186 -376 -250 -364 -660
-650 -1123 -782 -392 -112 -934 -138 -1355 -64 -430 75 -779 248 -964 477 -54
67 -133 208 -123 218 3 3 37 1 75 -5 151 -23 426 -33 807 -29 l390 4 30 -65
c101 -222 319 -388 569 -436 460 -88 898 250 933 721 l6 81 301 88 c165 49
373 112 461 141 88 28 166 52 173 53 9 1 10 -7 6 -26z m-1026 -140 c4 -10 7
-79 7 -153 -1 -121 -4 -143 -29 -215 -54 -158 -158 -291 -297 -382 -68 -44
-211 -104 -223 -92 -8 8 -55 404 -48 407 4 1 31 15 61 30 139 70 159 201 42
270 -41 24 -56 27 -142 27 -86 0 -101 -3 -154 -30 -81 -42 -120 -92 -120 -155
0 -42 5 -54 34 -84 38 -40 105 -66 166 -66 l41 0 25 -205 c14 -113 23 -208 20
-210 -8 -9 -178 -5 -232 5 -212 40 -409 190 -505 385 -47 96 -77 198 -72 242
3 25 12 30 103 60 259 87 530 141 895 176 19 2 122 5 228 5 175 2 193 0 200
-15z m1875 -840 c201 -481 240 -928 108 -1251 -110 -270 -345 -482 -654 -588
-271 -93 -622 -22 -942 189 -176 117 -387 318 -524 501 -129 171 -298 472
-277 493 11 12 137 -17 255 -59 407 -142 492 -162 691 -162 210 0 379 41 607
149 372 176 601 449 678 808 3 15 7 27 9 27 2 0 24 -48 49 -107z m-5407 -630
c119 -231 346 -419 664 -549 561 -229 1124 -135 1697 282 63 46 116 84 119 84
8 0 -5 -104 -23 -184 -41 -187 -208 -505 -371 -707 -136 -169 -339 -337 -511
-424 -287 -144 -619 -172 -938 -79 -510 148 -832 624 -833 1231 0 157 37 390
86 536 l17 52 28 -84 c15 -46 44 -117 65 -158z"/>
<path d="M7778 14849 c-183 -127 -509 -274 -793 -359 -89 -26 -116 -43 -98
-61 13 -13 233 55 428 132 225 89 550 273 543 307 -5 26 -21 22 -80 -19z"/>
<path d="M5575 14850 c-11 -5 -95 -41 -187 -80 -181 -78 -345 -165 -433 -230
-59 -44 -74 -65 -58 -81 7 -7 35 9 84 46 81 62 368 208 544 278 67 27 110 50
110 58 0 17 -32 22 -60 9z"/>
<path d="M5605 14796 c-240 -87 -459 -197 -609 -304 -82 -59 -96 -76 -78 -94
8 -8 22 -2 49 19 70 56 207 140 313 193 112 56 342 152 410 170 29 8 40 16 40
30 0 27 -19 25 -125 -14z"/>
<path d="M7453 14794 c-95 -74 -371 -213 -534 -268 -56 -19 -74 -29 -74 -43 0
-25 25 -21 143 23 215 80 522 253 522 295 0 26 -19 24 -57 -7z"/>
<path d="M5740 14766 c-199 -77 -399 -174 -522 -255 -88 -57 -104 -74 -86 -89
10 -8 36 5 101 48 140 93 353 194 600 284 52 20 64 46 20 45 -16 0 -66 -15
-113 -33z"/>
<path d="M5910 14754 c-219 -79 -510 -247 -510 -295 0 -24 18 -24 50 2 121 97
300 191 495 259 75 27 104 51 73 63 -7 2 -56 -11 -108 -29z"/>
<path d="M7165 14734 c-95 -65 -273 -155 -370 -187 -69 -22 -91 -42 -60 -53
59 -23 535 222 535 276 0 30 -17 24 -105 -36z"/>
<path d="M6037 14735 c-103 -43 -317 -176 -317 -197 0 -26 38 -14 113 36 47
31 133 79 191 107 63 29 106 55 103 62 -6 20 -29 18 -90 -8z"/>
<path d="M7000 14729 c-43 -37 -158 -100 -225 -124 -65 -24 -78 -34 -65 -50
15 -18 63 -4 165 47 141 71 201 122 172 146 -8 7 -22 2 -47 -19z"/>
<path d="M7765 11681 c-78 -41 -112 -134 -102 -281 15 -216 117 -412 234 -451
48 -16 114 -3 161 30 83 61 112 198 74 347 -72 276 -228 426 -367 355z m153
-237 c35 -24 63 -90 65 -148 1 -62 -25 -114 -66 -134 -41 -20 -94 10 -124 69
-39 76 -26 189 24 218 27 15 76 13 101 -5z"/>
<path d="M6612 11420 c-74 -46 -119 -170 -109 -303 11 -145 60 -278 131 -355
52 -57 103 -82 164 -82 68 0 109 30 147 105 26 53 30 69 29 150 -1 209 -94
433 -205 491 -41 21 -118 18 -157 -6z m194 -239 c107 -65 94 -291 -17 -291
-82 0 -154 143 -118 237 26 70 76 90 135 54z"/>
<path d="M11310 9739 c-47 -5 -182 -18 -300 -29 -307 -29 -900 -87 -1070 -105
-80 -8 -305 -31 -500 -50 -195 -19 -370 -38 -388 -41 -38 -6 -51 -29 -29 -51
13 -14 29 -14 122 -4 58 6 309 31 558 56 249 25 517 52 597 60 80 8 240 24
355 35 116 11 278 27 360 35 83 8 231 21 330 30 183 16 212 25 199 58 -7 19
-83 21 -234 6z"/>
<path d="M6130 9066 c-193 -75 -1386 -539 -1515 -589 -139 -55 -239 -94 -417
-163 -212 -82 -244 -96 -255 -111 -14 -19 -1 -43 24 -43 12 0 591 223 1293
497 63 25 306 119 540 210 234 91 431 167 438 170 17 7 15 50 -4 57 -9 3 -16
6 -17 6 -1 -1 -40 -16 -87 -34z"/>
</g>
</svg>
